<svg width="32" height="32" viewBox="0 0 32 32" fill="none" xmlns="http://www.w3.org/2000/svg">
<path opacity="0.05" fill-rule="evenodd" clip-rule="evenodd" d="M-369.291 -140.095C-364.544 -146.547 -357.423 -149.944 -347.929 -150.623C-330.636 -151.981 -320.803 -143.831 -318.43 -126.171C-307.918 -55.1924 -296.39 4.91861 -284.183 54.162L-209.926 -87.4553C-203.144 -100.36 -194.668 -107.153 -184.495 -107.832C-169.576 -108.851 -160.421 -99.3417 -156.691 -79.3047C-148.214 -34.1366 -137.364 4.23936 -124.479 36.8419C-115.663 -49.419 -100.744 -111.568 -79.7214 -149.944C-74.6353 -159.453 -67.1756 -164.207 -57.3425 -164.886C-49.5438 -165.566 -42.4232 -163.188 -35.9808 -158.094C-29.5384 -153 -26.1476 -146.547 -25.4695 -138.736C-25.1304 -132.623 -26.1476 -127.529 -28.8602 -122.435C-42.0841 -97.9832 -52.9345 -56.8904 -61.7505 0.164093C-70.2273 55.5205 -73.279 98.6509 -71.2445 129.555C-70.5663 138.046 -71.9227 145.517 -75.3134 151.97C-79.3823 159.441 -85.4856 163.516 -93.2843 164.196C-102.1 164.875 -111.255 160.799 -120.071 151.63C-151.605 119.367 -176.697 71.1426 -195.007 6.95628C-217.046 50.4264 -233.322 83.0289 -243.833 104.764C-263.839 143.14 -280.792 162.837 -295.034 163.856C-304.189 164.535 -311.987 156.724 -318.769 140.423C-336.062 95.9341 -354.711 10.0128 -374.716 -117.341C-375.733 -126.171 -374.038 -133.982 -369.291 -140.095ZM358.712 -86.8669C346.496 -108.322 328.51 -121.263 304.417 -126.371C297.97 -127.734 291.861 -128.415 286.092 -128.415C253.516 -128.415 227.047 -111.387 206.347 -77.3314C188.701 -48.3842 179.878 -16.3719 179.878 18.7053C179.878 44.928 185.308 67.4046 196.167 86.1351C208.383 107.59 226.368 120.531 250.461 125.64C256.909 127.002 263.017 127.683 268.786 127.683C301.702 127.683 328.171 110.655 348.532 76.5996C366.177 47.3119 375 15.2997 375 -19.7775C375 -46.3409 369.571 -68.4769 358.712 -86.8669ZM315.955 7.46687C311.204 29.9435 302.72 46.6308 290.165 57.8691C280.324 66.7235 271.161 70.4696 262.678 68.7668C254.534 67.064 247.747 59.9124 242.657 46.6307C238.585 36.0735 236.549 25.5164 236.549 15.6403C236.549 7.1264 237.227 -1.38754 238.924 -9.22031C241.978 -23.1831 247.747 -36.8053 256.909 -49.7464C268.107 -66.4336 279.984 -73.2447 292.201 -70.8608C300.345 -69.1581 307.132 -62.0064 312.222 -48.7247C316.294 -38.1675 318.33 -27.6103 318.33 -17.7342C318.33 -8.87976 317.312 -0.36589 315.955 7.46687ZM93.0349 -126.371C116.789 -121.263 135.113 -108.322 147.33 -86.8669C158.189 -68.4769 163.618 -46.3409 163.618 -19.7775C163.618 15.2997 154.795 47.3119 137.149 76.5996C116.789 110.655 90.3201 127.683 57.4039 127.683C51.635 127.683 45.5269 127.002 39.0794 125.64C14.9861 120.531 -2.99908 107.59 -15.2154 86.1351C-26.0744 67.4046 -31.5039 44.928 -31.5039 18.7053C-31.5039 -16.3719 -22.681 -48.3842 -5.03516 -77.3314C15.6648 -111.387 42.1335 -128.415 74.7104 -128.415C80.4792 -128.415 86.5873 -127.734 93.0349 -126.371ZM78.7824 57.8691C91.3381 46.6308 99.8217 29.9435 104.572 7.46687C106.269 -0.36589 106.948 -8.87976 106.948 -17.7342C106.948 -27.6103 104.912 -38.1675 100.84 -48.7247C95.7495 -62.0064 88.9627 -69.1581 80.8185 -70.8608C68.6022 -73.2447 56.7252 -66.4336 45.5269 -49.7464C36.3646 -36.8053 30.5959 -23.1831 27.5418 -9.22031C25.8451 -1.38754 25.1663 7.1264 25.1663 15.6403C25.1663 25.5164 27.2023 36.0735 31.2744 46.6307C36.3646 59.9124 43.1515 67.064 51.2957 68.7668C59.7793 70.4696 68.9415 66.7235 78.7824 57.8691Z" fill="white"/>
</svg>
